<?xml version="1.0" encoding="UTF-8"?>
<svg width="640px" height="384px" viewBox="0 0 640 384" version="1.1" xmlns="http://www.w3.org/2000/svg" xmlns:xlink="http://www.w3.org/1999/xlink">
    <title>graduation-cap-solid</title>
    <g id="Page-1" stroke="none" stroke-width="1" fill="none" fill-rule="evenodd">
        <g id="graduation-cap-solid" fill="#384151" fill-rule="nonzero">
            <path d="M622.34,89.2 L343.4,3.5 C328.2,-1.17 311.8,-1.17 296.61,3.5 L17.66,89.2 C-5.88,96.43 -5.88,127.56 17.66,134.79 L66.29,149.73 C55.62,162.92 49.06,179.01 48.41,196.63 C38.78,202.15 32,212.11 32,224 C32,234.78 37.68,243.85 45.86,249.65 L20.33,364.53 C18.11,374.52 25.71,384 35.94,384 L92.05,384 C102.29,384 109.89,374.52 107.67,364.53 L82.14,249.65 C90.32,243.85 96,234.78 96,224 C96,212.43 89.53,202.75 80.34,197.13 C81.1,182.11 88.78,168.83 101.03,160.41 L296.6,220.5 C305.66,223.28 323.04,226.75 343.39,220.5 L622.34,134.8 C645.89,127.56 645.89,96.44 622.34,89.2 Z M352.79,251.09 C324.26,259.85 299.95,255.01 287.2,251.09 L142.18,206.54 L128,320 C128,355.35 213.96,384 320,384 C426.04,384 512,355.35 512,320 L497.82,206.53 L352.79,251.09 Z" id="Shape"></path>
        </g>
    </g>
</svg>